<mxfile host="app.diagrams.net" modified="2023-09-18T16:41:05.373Z" agent="Mozilla/5.0 (Windows NT 10.0; Win64; x64) AppleWebKit/537.36 (KHTML, like Gecko) Chrome/114.0.0.0 YaBrowser/23.7.5.739 Yowser/2.5 Safari/537.36" etag="hH5m0-iK2g-hv7tcv23V" version="21.4.0" type="device">
  <diagram name="Страница 1" id="Wb-O8iBzIN9LWpa5k_zf">
    <mxGraphModel dx="-1415" dy="611" grid="1" gridSize="10" guides="1" tooltips="1" connect="1" arrows="1" fold="1" page="1" pageScale="1" pageWidth="827" pageHeight="1169" math="0" shadow="0">
      <root>
        <mxCell id="0" />
        <mxCell id="1" parent="0" />
        <mxCell id="ZErU_FkC1AWYyX636tQb-1" style="edgeStyle=orthogonalEdgeStyle;rounded=0;orthogonalLoop=1;jettySize=auto;html=1;entryX=0;entryY=0.5;entryDx=0;entryDy=0;" edge="1" parent="1" source="ZErU_FkC1AWYyX636tQb-3" target="ZErU_FkC1AWYyX636tQb-5">
          <mxGeometry relative="1" as="geometry" />
        </mxCell>
        <mxCell id="ZErU_FkC1AWYyX636tQb-2" style="edgeStyle=orthogonalEdgeStyle;rounded=0;orthogonalLoop=1;jettySize=auto;html=1;entryX=0.5;entryY=0;entryDx=0;entryDy=0;" edge="1" parent="1" source="ZErU_FkC1AWYyX636tQb-3" target="ZErU_FkC1AWYyX636tQb-9">
          <mxGeometry relative="1" as="geometry">
            <Array as="points">
              <mxPoint x="3130" y="175" />
              <mxPoint x="2990" y="175" />
            </Array>
          </mxGeometry>
        </mxCell>
        <mxCell id="ZErU_FkC1AWYyX636tQb-3" value="Студент" style="rounded=1;whiteSpace=wrap;html=1;" vertex="1" parent="1">
          <mxGeometry x="3070" y="100" width="120" height="60" as="geometry" />
        </mxCell>
        <mxCell id="ZErU_FkC1AWYyX636tQb-4" style="edgeStyle=orthogonalEdgeStyle;rounded=0;orthogonalLoop=1;jettySize=auto;html=1;entryX=0.5;entryY=0;entryDx=0;entryDy=0;" edge="1" parent="1" source="ZErU_FkC1AWYyX636tQb-5" target="ZErU_FkC1AWYyX636tQb-21">
          <mxGeometry relative="1" as="geometry" />
        </mxCell>
        <mxCell id="ZErU_FkC1AWYyX636tQb-5" value="Казанский государственный&lt;br&gt;энергетический&lt;br&gt;университет" style="rounded=1;whiteSpace=wrap;html=1;" vertex="1" parent="1">
          <mxGeometry x="3310" y="100" width="120" height="60" as="geometry" />
        </mxCell>
        <mxCell id="ZErU_FkC1AWYyX636tQb-6" value="учится" style="text;html=1;strokeColor=none;fillColor=none;align=center;verticalAlign=middle;whiteSpace=wrap;rounded=0;" vertex="1" parent="1">
          <mxGeometry x="3220" y="95" width="60" height="30" as="geometry" />
        </mxCell>
        <mxCell id="ZErU_FkC1AWYyX636tQb-7" style="edgeStyle=orthogonalEdgeStyle;rounded=0;orthogonalLoop=1;jettySize=auto;html=1;" edge="1" parent="1" source="ZErU_FkC1AWYyX636tQb-9" target="ZErU_FkC1AWYyX636tQb-12">
          <mxGeometry relative="1" as="geometry">
            <mxPoint x="3110" y="240" as="targetPoint" />
          </mxGeometry>
        </mxCell>
        <mxCell id="ZErU_FkC1AWYyX636tQb-8" style="edgeStyle=orthogonalEdgeStyle;rounded=0;orthogonalLoop=1;jettySize=auto;html=1;exitX=0.5;exitY=1;exitDx=0;exitDy=0;entryX=0.5;entryY=0;entryDx=0;entryDy=0;" edge="1" parent="1" source="ZErU_FkC1AWYyX636tQb-9" target="ZErU_FkC1AWYyX636tQb-15">
          <mxGeometry relative="1" as="geometry" />
        </mxCell>
        <mxCell id="ZErU_FkC1AWYyX636tQb-9" value="Галеев" style="rounded=1;whiteSpace=wrap;html=1;" vertex="1" parent="1">
          <mxGeometry x="2930" y="210" width="120" height="60" as="geometry" />
        </mxCell>
        <mxCell id="ZErU_FkC1AWYyX636tQb-10" value="например" style="text;html=1;strokeColor=none;fillColor=none;align=center;verticalAlign=middle;whiteSpace=wrap;rounded=0;" vertex="1" parent="1">
          <mxGeometry x="2980" y="140" width="60" height="30" as="geometry" />
        </mxCell>
        <mxCell id="ZErU_FkC1AWYyX636tQb-11" style="edgeStyle=orthogonalEdgeStyle;rounded=0;orthogonalLoop=1;jettySize=auto;html=1;" edge="1" parent="1" source="ZErU_FkC1AWYyX636tQb-12">
          <mxGeometry relative="1" as="geometry">
            <mxPoint x="3040" y="315" as="targetPoint" />
            <Array as="points">
              <mxPoint x="3250" y="295" />
              <mxPoint x="3041" y="295" />
            </Array>
          </mxGeometry>
        </mxCell>
        <mxCell id="ZErU_FkC1AWYyX636tQb-12" value="Кафедра&lt;br&gt;Моделирование ИС" style="rounded=1;whiteSpace=wrap;html=1;" vertex="1" parent="1">
          <mxGeometry x="3190" y="210" width="120" height="60" as="geometry" />
        </mxCell>
        <mxCell id="ZErU_FkC1AWYyX636tQb-13" value="Учится" style="text;html=1;align=center;verticalAlign=middle;resizable=0;points=[];autosize=1;strokeColor=none;fillColor=none;" vertex="1" parent="1">
          <mxGeometry x="3090" y="200" width="60" height="30" as="geometry" />
        </mxCell>
        <mxCell id="ZErU_FkC1AWYyX636tQb-14" style="edgeStyle=orthogonalEdgeStyle;rounded=0;orthogonalLoop=1;jettySize=auto;html=1;" edge="1" parent="1" source="ZErU_FkC1AWYyX636tQb-15" target="ZErU_FkC1AWYyX636tQb-17">
          <mxGeometry relative="1" as="geometry">
            <mxPoint x="3140" y="345" as="targetPoint" />
          </mxGeometry>
        </mxCell>
        <mxCell id="ZErU_FkC1AWYyX636tQb-15" value="Программирование" style="rounded=1;whiteSpace=wrap;html=1;" vertex="1" parent="1">
          <mxGeometry x="2980" y="315" width="120" height="60" as="geometry" />
        </mxCell>
        <mxCell id="ZErU_FkC1AWYyX636tQb-16" value="Изучает" style="text;html=1;strokeColor=none;fillColor=none;align=center;verticalAlign=middle;whiteSpace=wrap;rounded=0;" vertex="1" parent="1">
          <mxGeometry x="3050" y="270" width="60" height="30" as="geometry" />
        </mxCell>
        <mxCell id="ZErU_FkC1AWYyX636tQb-17" value="Учебная&lt;br&gt;дисциплина" style="rounded=1;whiteSpace=wrap;html=1;" vertex="1" parent="1">
          <mxGeometry x="3160" y="315" width="120" height="60" as="geometry" />
        </mxCell>
        <mxCell id="ZErU_FkC1AWYyX636tQb-18" value="ведет" style="text;html=1;strokeColor=none;fillColor=none;align=center;verticalAlign=middle;whiteSpace=wrap;rounded=0;" vertex="1" parent="1">
          <mxGeometry x="3140" y="270" width="60" height="30" as="geometry" />
        </mxCell>
        <mxCell id="ZErU_FkC1AWYyX636tQb-19" value="Это" style="text;html=1;strokeColor=none;fillColor=none;align=center;verticalAlign=middle;whiteSpace=wrap;rounded=0;" vertex="1" parent="1">
          <mxGeometry x="3100" y="315" width="60" height="30" as="geometry" />
        </mxCell>
        <mxCell id="ZErU_FkC1AWYyX636tQb-20" style="edgeStyle=orthogonalEdgeStyle;rounded=0;orthogonalLoop=1;jettySize=auto;html=1;entryX=1;entryY=0.5;entryDx=0;entryDy=0;" edge="1" parent="1" source="ZErU_FkC1AWYyX636tQb-21" target="ZErU_FkC1AWYyX636tQb-12">
          <mxGeometry relative="1" as="geometry" />
        </mxCell>
        <mxCell id="ZErU_FkC1AWYyX636tQb-21" value="Факультет&lt;br&gt;информатики" style="rounded=1;whiteSpace=wrap;html=1;" vertex="1" parent="1">
          <mxGeometry x="3400" y="210" width="120" height="60" as="geometry" />
        </mxCell>
        <mxCell id="ZErU_FkC1AWYyX636tQb-22" value="Имеет&lt;br&gt;Частью" style="text;html=1;strokeColor=none;fillColor=none;align=center;verticalAlign=middle;whiteSpace=wrap;rounded=0;" vertex="1" parent="1">
          <mxGeometry x="3330" y="210" width="60" height="30" as="geometry" />
        </mxCell>
      </root>
    </mxGraphModel>
  </diagram>
</mxfile>
